# xmcd CD database file
#
# Track frame offsets:
#	150
#	12326
#	27204
#	45837
#	63557
#	81759
#	94750
#	115279
#	133490
#	146566
#
# Disc length: 2252 seconds
#
# Revision: 0
# Processed by: cddbd v1.5.1PL0 Copyright (c) Steve Scherf et al.
# Submitted via: CDex 1.51
#
DISCID=8408ca0a
DTITLE=Adam Makowicz - Polish Jazz vol. 35
DYEAR=2004
DGENRE=Jazz
TTITLE0=The Song From the Valleys
TTITLE1=War Song
TTITLE2=The Songs From The Hills
TTITLE3=Drinking Song
TTITLE4=Sacred Song
TTITLE5=Seven for Five (W. Karolak)
TTITLE6=Suggestion (C. Bartkowski)
TTITLE7=Blues (A. Makowicz, C. Bartkowski)
TTITLE8=It's Not Bad (K. Komeda) 
TTITLE9=Cherokee (Ray Noble)
EXTD=YEAR: 2004
EXTT0=
EXTT1=
EXTT2=
EXTT3=
EXTT4=
EXTT5=
EXTT6=
EXTT7=
EXTT8=
EXTT9=
PLAYORDER=
